<?xml version="1.0" encoding="UTF-8"?>
<svg id="Livello_1" fill="currentColor" data-name="Livello 1" xmlns="http://www.w3.org/2000/svg" viewBox="0 0 2000 2000">
  <defs>
    <!-- <style>
      .cls-1 {
        fill: red;
        stroke-width: 0px;
      }
    </style> -->
  </defs>
  <path fill="pink"  d="M1369.39,305.52c-8.76-.49-17.59-.74-26.46-.74-131.94,0-251.88,68.58-342.92,158.69-91.04-90.11-210.98-158.69-342.92-158.69-8.88,0-17.7.25-26.46.74-361.14,20.19-540.34,496.36-310.05,803.89,56.64,75.76,421.88,421.76,576.42,572.69,28.24,27.58,75.79,8.93,77.8-30.49l6.66-391.47c4.82-94.42-25.15-187.32-84.23-261.13l-4.27-5.33c-1.76-2.2-1.4-5.4.79-7.16,2.09-1.67,5.11-1.42,6.91.5l63.25,59.7c21.14,16.99,51.21,17.16,72.55.41l57.05-53.67c1.83-1.96,4.9-2.06,6.86-.23,1.85,1.73,2.03,4.59.5,6.55h0c-57.87,73.34-87.21,165.18-82.58,258.49l6.12,391.35c1.98,39.84,50.37,58.33,78.41,29.95l576.65-570.15c230.28-307.53,51.08-783.7-310.06-803.89Z"/>
</svg>