<svg width="526" height="203" viewBox="0 0 526 203" fill="none" xmlns="http://www.w3.org/2000/svg">
<path d="M0.401953 162L33.892 117.46L2.27195 75.3H21.992L43.412 104.54L64.662 75.3H83.702L52.422 116.95L86.252 162H66.532L43.072 129.7L19.442 162H0.401953ZM101.924 162H84.7538V43H101.924V162ZM106.891 118.65C106.891 94.17 126.101 73.6 151.431 73.6C176.421 73.6 194.781 92.81 194.781 118.65V124.26H124.231C126.611 138.37 138.341 148.91 152.961 148.91C162.991 148.91 171.491 144.83 177.951 136.16L190.361 145.34C181.691 156.9 168.771 163.87 152.961 163.87C126.951 163.87 106.891 144.49 106.891 118.65ZM151.091 88.56C138.341 88.56 127.631 97.4 124.571 110.66H177.441C174.551 97.4 163.841 88.56 151.091 88.56ZM243.426 90.6H236.286C225.066 90.6 216.906 99.27 216.906 112.7V162H199.736V75.3H216.736V86.01C220.986 79.04 227.956 74.62 237.476 74.62H243.426V90.6ZM332.465 118.65C332.465 143.64 311.725 164.04 285.885 164.04C260.045 164.04 239.305 143.64 239.305 118.65C239.305 93.66 260.045 73.43 285.885 73.43C311.725 73.43 332.465 93.66 332.465 118.65ZM315.295 118.65C315.295 101.99 302.205 88.73 285.885 88.73C269.565 88.73 256.475 101.99 256.475 118.65C256.475 135.48 269.565 148.74 285.885 148.74C302.205 148.74 315.295 135.48 315.295 118.65ZM413.453 106.58V162H396.283V109.98C396.283 97.4 388.123 88.9 375.883 88.9C363.473 88.9 354.633 97.57 354.633 110.49V162H337.463V75.3H354.633V84.82C360.753 77.68 369.763 73.43 380.133 73.43C400.023 73.43 413.453 88.05 413.453 106.58ZM429.93 142.62C435.88 142.62 440.47 147.38 440.47 153.16C440.47 159.11 435.88 163.7 429.93 163.7C424.15 163.7 419.39 159.11 419.39 153.16C419.39 147.38 424.15 142.62 429.93 142.62ZM474.482 162H469.482V158.8C467.182 161.15 463.982 162.6 460.432 162.6C452.882 162.6 446.982 156.65 446.982 149.3C446.982 141.9 452.932 135.95 460.432 135.95C463.932 135.95 467.132 137.35 469.432 139.7V127H474.482V162ZM469.532 149.3C469.532 144.35 465.632 140.45 460.782 140.45C455.932 140.45 452.032 144.35 452.032 149.3C452.032 154.2 455.932 158.15 460.782 158.15C465.632 158.15 469.532 154.2 469.532 149.3ZM475.928 149.25C475.928 142.05 481.578 136 489.028 136C496.378 136 501.778 141.65 501.778 149.25V150.9H481.028C481.728 155.05 485.178 158.15 489.478 158.15C492.428 158.15 494.928 156.95 496.828 154.4L500.478 157.1C497.928 160.5 494.128 162.55 489.478 162.55C481.828 162.55 475.928 156.85 475.928 149.25ZM488.928 140.4C485.178 140.4 482.028 143 481.128 146.9H496.678C495.828 143 492.678 140.4 488.928 140.4ZM510.068 162L499.168 136.5H504.618L512.218 155.2L519.818 136.5H525.118L514.318 162H510.068Z" fill="white"/>
<path d="M26.2517 115.052L44.7515 140.052" stroke="black" stroke-width="9"/>
</svg>
